PathFileType	4	(X/Y/Z)	D:\Vicon data\Senior Design EMG regression\Subject 2- Oliver\Session 3\oliver- static trial.trc
DataRate	CameraRate	NumFrames	NumMarkers	Units	OrigDataRate	OrigDataStartFrame	OrigNumFrames
100.0	100.0	4	60	mm	100.0	142	565	
Frame#	Time	HEAD			C7			CLAV			STUR			LSHO			LHAR2			LHME			LRAH			LRAD			LULN			LMCM			RSHO			RHAR2			RHME			RRAH			RRAD			RULN			RMCM			LASI			RASI			LPSI			RPSI			LLAT			LLFC			LKNE			LLAN			LHEE			LTOE			RLAT			RLFC			RKNE			RLAN			RHEE			RTOE			RSMT			RMAN			LSMT			LMAN			RSAT1			RSAT			RMFC			LSAT1			LSAT			LMFC			BARB			RHAR1			RHGT			RHHB			RHHF			RHLE			RMCR			RMCA			RMCI			LHHF			LHHB			LHGT			LHAR1			LHLE			LMCR			LMCI			
		X1	Y1	Z1	X2	Y2	Z2	X3	Y3	Z3	X4	Y4	Z4	X5	Y5	Z5	X6	Y6	Z6	X7	Y7	Z7	X8	Y8	Z8	X9	Y9	Z9	X10	Y10	Z10	X11	Y11	Z11	X12	Y12	Z12	X13	Y13	Z13	X14	Y14	Z14	X15	Y15	Z15	X16	Y16	Z16	X17	Y17	Z17	X18	Y18	Z18	X19	Y19	Z19	X20	Y20	Z20	X21	Y21	Z21	X22	Y22	Z22	X23	Y23	Z23	X24	Y24	Z24	X25	Y25	Z25	X26	Y26	Z26	X27	Y27	Z27	X28	Y28	Z28	X29	Y29	Z29	X30	Y30	Z30	X31	Y31	Z31	X32	Y32	Z32	X33	Y33	Z33	X34	Y34	Z34	X35	Y35	Z35	X36	Y36	Z36	X37	Y37	Z37	X38	Y38	Z38	X39	Y39	Z39	X40	Y40	Z40	X41	Y41	Z41	X42	Y42	Z42	X43	Y43	Z43	X44	Y44	Z44	X45	Y45	Z45	X46	Y46	Z46	X47	Y47	Z47	X48	Y48	Z48	X49	Y49	Z49	X50	Y50	Z50	X51	Y51	Z51	X52	Y52	Z52	X53	Y53	Z53	X54	Y54	Z54	X55	Y55	Z55	X56	Y56	Z56	X57	Y57	Z57	X58	Y58	Z58	X59	Y59	Z59	X60	Y60	Z60	
142	1.41	2.0396106	1660.5721	-412.44217	5.1022024	1486.8458	-195.42661	8.3016024	1421.765	-331.97083	7.4259896	1219.4115	-386.04987	-150.98053	1480.2916	-260.0238	-317.36154	1432.6984	-313.25266	-406.78775	1306.8113	-346.42798	-372.93344	1385.4963	-389.36639	-364.47598	1364.7648	-576.53387	-440.35291	1359.0204	-578.99713	-387.01764	1374.0465	-663.72388	166.42001	1463.2998	-235.49338	315.32129	1415.5206	-287.58759	425.13116	1386.2095	-296.98239	405.64713	1380.0364	-340.40976	419.82556	1341.2472	-538.64032	490.79166	1361.1587	-530.81726	460.87784	1346.8413	-630.40759	-81.637115	924.8902	-394.46594	134.77779	942.39172	-386.23633	-16.080141	991.37811	-165.92325	61.719135	991.10126	-163.41843	-130.73445	581.90808	-326.58337	-117.09967	489.95312	-309.08502	-72.407402	435.32629	-337.19647	-125.89398	93.551796	-225.62074	-83.031502	73.652779	-163.17583	-90.458405	48.709167	-427.20273	215.08456	725.63025	-294.1319	139.70531	483.67526	-308.2962	98.846909	445.44583	-325.81204	149.83528	88.789406	-220.39215	104.55534	71.852402	-165.3976	113.57726	54.020039	-422.6261	166.68584	53.784893	-360.43347	67.024796	98.86837	-239.46176	-148.58965	54.530521	-346.0791	-39.01619	95.107124	-241.45703	155.76433	814.25171	-389.42252	121.35973	605.164	-371.99304	43.225655	469.94897	-287.29013	-75.967155	790.82727	-417.7146	-85.216957	637.6568	-390.98499	-14.40649	471.96857	-308.44858	57.996353	1235.5939	-145.67511	380.60818	1379.7737	-243.41089	274.04886	1433.9989	-230.40288	185.6938	1377.2104	-170.39264	176.70088	1426.4655	-320.36154				483.99902	1343.9833	-620.28577	498.91443	1348.2891	-588.78094	437.14444	1347.2395	-630.20624	-151.15164	1427.8533	-342.75827	-191.62958	1417.8169	-215.75237	-255.88873	1466.7041	-283.34448	-374.54114	1401.3386	-274.29721	-415.12131	1409.5856	-332.15115	-412.6795	1368.9539	-663.24194	-357.64001	1369.9384	-663.93927
143	1.42	1.9660578	1660.5635	-412.37927	5.0939703	1486.8495	-195.3838	8.2705002	1421.7528	-331.91943	7.3839822	1219.3528	-385.96643	-150.97549	1480.3048	-259.99393	-317.37976	1432.7659	-313.25211	-406.82303	1307.1223	-346.5914	-372.82242	1385.7906	-389.55099	-364.58514	1364.856	-576.50348	-440.42487	1359.1437	-578.97937	-387.13535	1373.8807	-663.66144	166.40161	1463.3007	-235.47723	315.25449	1415.5142	-287.60364	425.11316	1386.0964	-296.89084	405.59134	1380.0365	-340.41168	419.86252	1341.1949	-538.66016	490.76953	1361.1084	-530.79639	460.8461	1346.7544	-630.37634	-81.673836	924.86975	-394.38467	134.72466	942.35754	-386.13531	-16.058788	991.40045	-165.85155	61.756618	991.12927	-163.34413	-130.82959	581.91705	-326.56305	-117.09845	489.93063	-309.0762	-72.388062	435.33759	-337.18216	-125.86334	93.531769	-225.67021	-83.060913	73.690712	-163.15738	-90.468552	48.67485	-427.20917	215.10904	725.61285	-294.12708	139.68671	483.66656	-308.28232	98.828781	445.43579	-325.78503	149.8241	88.772766	-220.42339	104.56645	71.849632	-165.39734	113.57774	54.005249	-422.65677	166.66747	53.751293	-360.44553	67.060951	98.814507	-239.48895	-148.59457	54.531731	-346.06604	-39.015911	95.102615	-241.47487	155.71286	814.23761	-389.35706	121.31677	605.12445	-371.96252	43.244881	469.91037	-287.29517	-75.969208	790.82922	-417.64642	-85.226906	637.64435	-390.96896	-14.418197	471.97845	-308.48886	57.983635	1235.6135	-145.62872	380.57538	1379.8093	-243.40919	274.02621	1434.0416	-230.41652	185.66745	1377.2511	-170.38504	176.65285	1426.4214	-320.33075				484.10495	1343.8695	-620.20862	498.96735	1348.3097	-588.77551	437.0769	1347.1785	-630.10065	-151.16705	1427.8398	-342.72833	-191.63008	1417.8707	-215.69858	-255.89162	1466.7579	-283.34631	-374.56161	1401.4442	-274.30817	-415.13498	1409.6985	-332.13666	-412.69955	1368.9189	-663.46802	-357.75552	1370.0226	-663.91089
144	1.43	1.898723	1660.595	-412.29794	5.0656543	1486.8746	-195.33598	8.2250633	1421.7566	-331.87015	7.3596425	1219.347	-385.91849	-151.00667	1480.3363	-259.94104	-317.39838	1432.851	-313.27322	-406.85846	1307.0852	-346.40826	-373.01761	1385.7089	-389.34225	-364.46188	1365.1213	-576.53351	-440.55368	1359.3064	-578.96362	-387.31967	1374.2179	-663.88196	166.37286	1463.326	-235.46222	315.21341	1415.5278	-287.62421	425.04871	1386.2413	-296.95166	405.5513	1380.0319	-340.40378	419.83636	1341.1641	-538.61389	490.76968	1361.1528	-530.77289	460.90228	1346.7555	-630.37012	-81.69017	924.8949	-394.28845	134.71094	942.41608	-386.04443	-16.062134	991.43152	-165.7718	61.749168	991.1861	-163.17722	-130.81325	581.90656	-326.51157	-117.11105	489.94897	-309.05072	-72.421303	435.35251	-337.15536	-125.88878	93.577065	-225.6756	-83.057175	73.663605	-163.18437	-90.457245	48.692627	-427.1889	215.08226	725.63696	-294.08939	139.67363	483.68326	-308.28635	98.811974	445.42554	-325.77222	149.83122	88.790596	-220.41957	104.57118	71.853409	-165.43719	113.56745	54.022053	-422.66415	166.65408	53.772419	-360.44028	67.061623	98.833351	-239.48317	-148.58998	54.554031	-346.10373	-39.027195	95.097153	-241.46735	155.69678	814.24603	-389.28937	121.30228	605.17462	-371.94498	43.259903	469.93228	-287.21671	-75.94873	790.84656	-417.57205	-85.218842	637.65967	-390.9426	-14.414091	471.9162	-308.40247	57.98238	1235.7059	-145.45853	380.58304	1379.7983	-243.465	274.01572	1434.1006	-230.42892	185.64803	1377.2944	-170.34377	176.59927	1426.4224	-320.31848				484.14258	1343.8766	-620.18555	498.99435	1348.332	-588.76617	437.06451	1347.1566	-630.06262	-151.16212	1427.8896	-342.67242	-191.66928	1417.9165	-215.64818	-255.89189	1466.8284	-283.314	-374.6098	1401.5687	-274.29782	-415.16803	1409.8132	-332.13614	-412.85345	1369.0771	-663.47491	-357.87839	1370.1643	-663.9024
145	1.44	1.8680677	1660.6196	-412.27673	5.0560708	1486.8948	-195.29099	8.1951475	1421.7821	-331.81604	7.3620439	1219.3679	-385.83661	-151.01848	1480.3695	-259.8685	-317.41663	1432.9379	-313.215	-406.86578	1307.3553	-346.62183	-373.05444	1385.8623	-389.33237	-364.56601	1365.3184	-576.54309	-440.64728	1359.485	-578.94757	-387.43527	1374.2301	-663.75836	166.34816	1463.3508	-235.4343	315.19891	1415.5858	-287.61026	425.13098	1386.1903	-296.93839	405.51639	1380.0803	-340.36975	419.70465	1341.4755	-539.11914	490.75217	1361.1898	-530.74036	460.85648	1346.7811	-630.27765	-81.683037	924.9259	-394.20129	134.68417	942.44385	-385.91379	-16.05925	991.41748	-165.67438	61.771206	991.20929	-163.00534	-130.84198	581.95587	-326.43481	-117.10626	489.98175	-308.9588	-72.41658	435.35864	-337.07016	-125.87388	93.578796	-225.62442	-83.063637	73.66835	-163.19101	-90.461975	48.729752	-427.20349	215.09201	725.63202	-294.02258	139.6954	483.71585	-308.23984	98.796707	445.45776	-325.74646	149.82835	88.817848	-220.38803	104.54108	71.86451	-165.41003	113.58329	54.040691	-422.65146	166.65077	53.775551	-360.43497	67.034386	98.855911	-239.44917	-148.59125	54.556019	-346.06473	-39.027256	95.126907	-241.45381	155.67599	814.26892	-389.177	121.29499	605.22064	-371.89294	43.218079	469.98941	-287.23047	-75.98925	790.88403	-417.4873	-85.256302	637.66248	-390.84674	-14.423191	471.96829	-308.33627	57.942432	1235.7294	-145.38261	380.56012	1379.8259	-243.65933	274.00037	1434.1521	-230.4167	185.64241	1377.323	-170.29239	176.5683	1426.4319	-320.27252				484.13708	1343.9236	-620.11145	498.88995	1348.2933	-588.63977	437.07336	1347.2227	-630.01642	-151.20346	1427.9302	-342.62741	-191.70123	1417.9608	-215.60558	-255.9135	1466.9087	-283.23914	-374.64429	1401.6532	-274.29962	-415.20407	1409.9216	-332.11252	-412.87643	1369.2877	-663.78766	-358.03812	1370.2358	-663.90594
